<svg width="48" height="41" viewBox="0 0 48 41" fill="none" xmlns="http://www.w3.org/2000/svg">
<path d="M45.0875 7.14236L19.1612 5.70996L0 7.14236V35.3629C0 35.8548 0.408562 36.2534 0.912468 36.2534H44.1751C44.679 36.2534 45.0874 35.8548 45.0874 35.3631V7.14236H45.0875Z" fill="#F6F9F9"/>
<path d="M0.912468 36.2535H44.1752C44.6791 36.2535 45.0875 35.8549 45.0875 35.3632V7.14248L41.2244 6.95007V21.7093C41.2244 23.4357 39.6593 24.7639 37.9078 24.5216C37.5388 24.4706 37.1608 24.4466 36.7761 24.4519C32.8693 24.5055 29.6765 27.6247 29.6255 31.4374C29.6251 31.4642 29.6249 31.4909 29.6248 31.5176C29.6215 33.0905 28.3265 34.3686 26.7147 34.3686H0V35.3631C0 35.8548 0.408562 36.2535 0.912468 36.2535Z" fill="#E7ECF1"/>
<path d="M40.7779 24.6469V27.1765C40.7779 27.2743 40.6967 27.3536 40.5965 27.3536H36.9159C36.8157 27.3536 36.7344 27.2743 36.7344 27.1765V24.6469C36.7344 24.5491 36.8157 24.4699 36.9159 24.4699H40.5965C40.6966 24.4698 40.7779 24.5491 40.7779 24.6469ZM40.7779 20.4352C40.7779 20.3374 40.6967 20.2581 40.5965 20.2581H36.9159C36.8157 20.2581 36.7344 20.3374 36.7344 20.4352V22.9648C36.7344 23.0626 36.8157 23.1418 36.9159 23.1418H40.5965C40.6967 23.1418 40.7779 23.0626 40.7779 22.9648V20.4352ZM40.7779 16.2234C40.7779 16.1256 40.6967 16.0464 40.5965 16.0464H36.9159C36.8157 16.0464 36.7344 16.1257 36.7344 16.2234V18.753C36.7344 18.8508 36.8157 18.93 36.9159 18.93H40.5965C40.6967 18.93 40.7779 18.8508 40.7779 18.753V16.2234ZM40.7779 12.0118C40.7779 11.9139 40.6967 11.8347 40.5965 11.8347H36.9159C36.8157 11.8347 36.7344 11.914 36.7344 12.0118V14.5413C36.7344 14.6391 36.8157 14.7184 36.9159 14.7184H40.5965C40.6967 14.7184 40.7779 14.6391 40.7779 14.5413V12.0118Z" fill="#DA4A54"/>
<path d="M36.9159 27.3534H40.5965C40.6967 27.3534 40.7779 27.2741 40.7779 27.1763V24.6468C40.7779 24.549 40.6967 24.4697 40.5965 24.4697H39.0047C38.657 24.5526 38.2865 24.5738 37.9073 24.5213C37.7441 24.4987 37.5792 24.4815 37.4127 24.4697H36.9159C36.8157 24.4697 36.7344 24.549 36.7344 24.6468V27.1763C36.7345 27.2741 36.8158 27.3534 36.9159 27.3534Z" fill="#D82E3D"/>
<path d="M29.9695 18.7531C29.9695 18.8509 29.8882 18.9301 29.788 18.9301H26.1074C26.0071 18.9301 25.926 18.8509 25.926 18.7531V16.2235C25.926 16.1257 26.0071 16.0465 26.1074 16.0465H29.788C29.8882 16.0465 29.9695 16.1258 29.9695 16.2235V18.7531ZM29.9695 12.0118C29.9695 11.914 29.8882 11.8348 29.788 11.8348H26.1074C26.0071 11.8348 25.926 11.9141 25.926 12.0118V14.5414C25.926 14.6392 26.0071 14.7185 26.1074 14.7185H29.788C29.8882 14.7185 29.9695 14.6392 29.9695 14.5414V12.0118ZM29.7881 24.4699H26.1075C26.0072 24.4699 25.9261 24.5491 25.9261 24.6469V27.1765C25.9261 27.2743 26.0072 27.3536 26.1075 27.3536H29.7881C29.8883 27.3536 29.9696 27.2743 29.9696 27.1765V24.647C29.9695 24.5492 29.8883 24.4699 29.7881 24.4699V24.4699ZM9.87672 14.7185H13.5752C13.6755 14.7185 13.7567 14.6392 13.7567 14.5414V12.0118C13.7567 11.914 13.6755 11.8348 13.5752 11.8348H9.87672C9.7765 11.8348 9.69531 11.9141 9.69531 12.0118V14.5414C9.69531 14.6391 9.7765 14.7185 9.87672 14.7185ZM9.69531 18.7531C9.69531 18.8509 9.7765 18.9301 9.87672 18.9301H13.5752C13.6755 18.9301 13.7567 18.8509 13.7567 18.7531V16.2235C13.7567 16.1257 13.6755 16.0465 13.5752 16.0465H9.87672C9.7765 16.0465 9.69531 16.1258 9.69531 16.2235V18.7531ZM29.9695 20.4353C29.9695 20.3375 29.8882 20.2582 29.788 20.2582H26.1074C26.0071 20.2582 25.926 20.3375 25.926 20.4353V22.9649C25.926 23.0627 26.0071 23.1419 26.1074 23.1419H29.788C29.8882 23.1419 29.9695 23.0627 29.9695 22.9649V20.4353ZM9.69531 22.9649C9.69531 23.0627 9.7765 23.1419 9.87672 23.1419H13.5752C13.6755 23.1419 13.7567 23.0627 13.7567 22.9649V20.4353C13.7567 20.3375 13.6755 20.2582 13.5752 20.2582H9.87672C9.7765 20.2582 9.69531 20.3375 9.69531 20.4353V22.9649ZM35.1924 24.4699H31.5118C31.4116 24.4699 31.3304 24.5491 31.3304 24.6469V27.1765C31.3304 27.2743 31.4116 27.3536 31.5118 27.3536H35.1924C35.2926 27.3536 35.3738 27.2743 35.3738 27.1765V24.647C35.3738 24.5492 35.2926 24.4699 35.1924 24.4699V24.4699ZM35.3738 20.4353C35.3738 20.3375 35.2926 20.2582 35.1924 20.2582H31.5118C31.4116 20.2582 31.3304 20.3375 31.3304 20.4353V22.9649C31.3304 23.0627 31.4116 23.1419 31.5118 23.1419H35.1924C35.2926 23.1419 35.3738 23.0627 35.3738 22.9649V20.4353ZM35.3738 16.2235C35.3738 16.1257 35.2926 16.0465 35.1924 16.0465H31.5118C31.4116 16.0465 31.3304 16.1258 31.3304 16.2235V18.7531C31.3304 18.8509 31.4116 18.9301 31.5118 18.9301H35.1924C35.2926 18.9301 35.3738 18.8509 35.3738 18.7531V16.2235ZM35.3738 12.0118C35.3738 11.914 35.2926 11.8348 35.1924 11.8348H31.5118C31.4116 11.8348 31.3304 11.9141 31.3304 12.0118V14.5414C31.3304 14.6392 31.4116 14.7185 31.5118 14.7185H35.1924C35.2926 14.7185 35.3738 14.6392 35.3738 14.5414V12.0118ZM9.69531 31.3841C9.69531 31.4819 9.7765 31.5611 9.87672 31.5611H13.5752C13.6755 31.5611 13.7567 31.4819 13.7567 31.3841V28.8587C13.7567 28.7609 13.6755 28.6817 13.5752 28.6817H9.87672C9.7765 28.6817 9.69531 28.7609 9.69531 28.8587V31.3841ZM20.5217 27.1765C20.5217 27.2743 20.603 27.3536 20.7032 27.3536H24.3838C24.484 27.3536 24.5652 27.2743 24.5652 27.1765V24.647C24.5652 24.5492 24.4839 24.47 24.3838 24.47H20.7032C20.6029 24.47 20.5217 24.5492 20.5217 24.647V27.1765ZM20.7032 18.9301H24.3839C24.4841 18.9301 24.5653 18.8509 24.5653 18.7531V16.2235C24.5653 16.1257 24.484 16.0465 24.3839 16.0465H20.7032C20.603 16.0465 20.5218 16.1258 20.5218 16.2235V18.7531C20.5217 18.8509 20.603 18.9301 20.7032 18.9301ZM20.5217 22.9649C20.5217 23.0627 20.603 23.1419 20.7032 23.1419H24.3838C24.484 23.1419 24.5652 23.0627 24.5652 22.9649V20.4353C24.5652 20.3375 24.4839 20.2582 24.3838 20.2582H20.7032C20.6029 20.2582 20.5217 20.3375 20.5217 20.4353V22.9649ZM20.5217 31.3841C20.5217 31.4819 20.603 31.5611 20.7032 31.5611H24.3838C24.484 31.5611 24.5652 31.4819 24.5652 31.3841V28.8587C24.5652 28.7609 24.4839 28.6817 24.3838 28.6817H20.7032C20.6029 28.6817 20.5217 28.7609 20.5217 28.8587V31.3841ZM24.3838 11.8347H20.7032C20.6029 11.8347 20.5217 11.914 20.5217 12.0118V14.5413C20.5217 14.6391 20.603 14.7184 20.7032 14.7184H24.3838C24.484 14.7184 24.5652 14.6391 24.5652 14.5413V12.0118C24.5653 11.914 24.484 11.8347 24.3838 11.8347ZM9.69531 27.1765C9.69531 27.2743 9.7765 27.3536 9.87672 27.3536H13.5752C13.6755 27.3536 13.7567 27.2743 13.7567 27.1765V24.647C13.7567 24.5492 13.6755 24.47 13.5752 24.47H9.87672C9.7765 24.47 9.69531 24.5492 9.69531 24.647V27.1765ZM15.1175 31.3841C15.1175 31.4819 15.1987 31.5611 15.2989 31.5611H18.9796C19.0798 31.5611 19.161 31.4819 19.161 31.3841V28.8587C19.161 28.7609 19.0798 28.6817 18.9796 28.6817H15.2989C15.1987 28.6817 15.1175 28.7609 15.1175 28.8587V31.3841ZM15.1175 18.7531C15.1175 18.8509 15.1987 18.9301 15.2989 18.9301H18.9796C19.0798 18.9301 19.161 18.8509 19.161 18.7531V16.2235C19.161 16.1257 19.0798 16.0465 18.9796 16.0465H15.2989C15.1987 16.0465 15.1175 16.1258 15.1175 16.2235V18.7531ZM15.2989 14.7185H18.9796C19.0798 14.7185 19.161 14.6392 19.161 14.5414V12.0118C19.161 11.914 19.0798 11.8348 18.9796 11.8348H15.2989C15.1987 11.8348 15.1175 11.9141 15.1175 12.0118V14.5414C15.1175 14.6391 15.1987 14.7185 15.2989 14.7185ZM15.1175 22.9649C15.1175 23.0627 15.1987 23.1419 15.2989 23.1419H18.9796C19.0798 23.1419 19.161 23.0627 19.161 22.9649V20.4353C19.161 20.3375 19.0798 20.2582 18.9796 20.2582H15.2989C15.1987 20.2582 15.1175 20.3375 15.1175 20.4353V22.9649ZM15.1175 27.1765C15.1175 27.2743 15.1987 27.3536 15.2989 27.3536H18.9796C19.0798 27.3536 19.161 27.2743 19.161 27.1765V24.647C19.161 24.5492 19.0798 24.47 18.9796 24.47H15.2989C15.1987 24.47 15.1175 24.5492 15.1175 24.647V27.1765Z" fill="#DAE4EA"/>
<path d="M31.3302 27.1763C31.3302 27.2741 31.4114 27.3534 31.5116 27.3534H35.1922C35.2924 27.3534 35.3736 27.2741 35.3736 27.1763V24.6469C35.3736 24.633 35.3719 24.6196 35.3688 24.6067C33.7656 24.9421 32.3532 25.7999 31.3301 26.9863V27.1763H31.3302Z" fill="#C6D0DA"/>
<path d="M44.1748 1.93896H0.912656C0.408562 1.93896 0 2.33778 0 2.82964V7.14214H45.0875V2.82964C45.0875 2.33778 44.6788 1.93896 44.1748 1.93896V1.93896Z" fill="#61A2F9"/>
<path d="M4.30859 18.753V16.2234C4.30859 16.1256 4.38978 16.0464 4.49 16.0464H8.15262C8.25284 16.0464 8.33403 16.1257 8.33403 16.2234V18.753C8.33403 18.8508 8.25275 18.93 8.15262 18.93H4.49009C4.38988 18.93 4.30859 18.8508 4.30859 18.753ZM4.30859 22.9648C4.30859 23.0626 4.38978 23.1418 4.49 23.1418H8.15262C8.25284 23.1418 8.33403 23.0626 8.33403 22.9648V20.4352C8.33403 20.3374 8.25275 20.2581 8.15262 20.2581H4.49009C4.38988 20.2581 4.30869 20.3374 4.30869 20.4352V22.9648H4.30859ZM4.30859 31.384C4.30859 31.4818 4.38978 31.561 4.49 31.561H8.15262C8.25284 31.561 8.33403 31.4818 8.33403 31.384V28.8586C8.33403 28.7608 8.25275 28.6816 8.15262 28.6816H4.49009C4.38988 28.6816 4.30869 28.7608 4.30869 28.8586V31.384H4.30859ZM4.30859 27.1764C4.30859 27.2742 4.38978 27.3535 4.49 27.3535H8.15262C8.25284 27.3535 8.33403 27.2742 8.33403 27.1764V24.6469C8.33403 24.5491 8.25275 24.4699 8.15262 24.4699H4.49009C4.38988 24.4699 4.30869 24.5491 4.30869 24.6469V27.1764H4.30859Z" fill="#DA4A54"/>
<path d="M5.02776 4.76382H3.87998C3.37777 4.76382 2.9707 4.36647 2.9707 3.87644V0.887384C2.9707 0.39726 3.37786 0 3.87998 0H5.02776C5.52998 0 5.93705 0.397351 5.93705 0.887384V3.87635C5.93705 4.36647 5.52998 4.76382 5.02776 4.76382Z" fill="white"/>
<path d="M10.982 4.76382H9.92491C9.42269 4.76382 9.01562 4.36647 9.01562 3.87644V0.887384C9.01562 0.39726 9.42278 0 9.92491 0H10.9819C11.4842 0 11.8912 0.397351 11.8912 0.887384V3.87635C11.8913 4.36647 11.4842 4.76382 10.982 4.76382Z" fill="white"/>
<path d="M17.0269 4.76382H15.9698C15.4676 4.76382 15.0605 4.36647 15.0605 3.87644V0.887384C15.0605 0.39726 15.4676 0 15.9698 0H17.0269C17.5291 0 17.9361 0.397351 17.9361 0.887384V3.87635C17.9361 4.36647 17.5291 4.76382 17.0269 4.76382Z" fill="white"/>
<path d="M23.0737 4.76382H22.0167C21.5145 4.76382 21.1074 4.36647 21.1074 3.87644V0.887384C21.1074 0.39726 21.5146 0 22.0167 0H23.0737C23.576 0 23.983 0.397351 23.983 0.887384V3.87635C23.983 4.36647 23.576 4.76382 23.0737 4.76382Z" fill="white"/>
<path d="M29.1187 4.76382H28.0616C27.5594 4.76382 27.1523 4.36647 27.1523 3.87644V0.887384C27.1523 0.39726 27.5594 0 28.0616 0H29.1187C29.6209 0 30.0279 0.397351 30.0279 0.887384V3.87635C30.028 4.36647 29.6209 4.76382 29.1187 4.76382Z" fill="white"/>
<path d="M35.1636 4.76382H34.1065C33.6043 4.76382 33.1973 4.36647 33.1973 3.87644V0.887384C33.1973 0.39726 33.6044 0 34.1065 0H35.1636C35.6658 0 36.0729 0.397351 36.0729 0.887384V3.87635C36.073 4.36647 35.6658 4.76382 35.1636 4.76382Z" fill="white"/>
<path d="M44.1751 1.93921H42.118L41.5728 3.34426C41.5728 3.82917 41.2246 4.76358 41.2246 4.76358V7.14229H45.0877V2.8298C45.0878 2.33793 44.6791 1.93921 44.1751 1.93921V1.93921Z" fill="#5490F9"/>
<path d="M41.2085 4.76382H40.1515C39.6493 4.76382 39.2422 4.36647 39.2422 3.87644V0.887384C39.2422 0.39726 39.6493 0 40.1515 0H41.2085C41.7107 0 42.1178 0.397351 42.1178 0.887384V3.87635C42.1178 4.36647 41.7106 4.76382 41.2085 4.76382Z" fill="white"/>
<path d="M40.7439 40.4979C44.751 40.4979 47.9995 37.3277 47.9995 33.417C47.9995 29.5064 44.751 26.3362 40.7439 26.3362C36.7367 26.3362 33.4883 29.5064 33.4883 33.417C33.4883 37.3277 36.7367 40.4979 40.7439 40.4979Z" fill="#80E29D"/>
<path d="M41.9095 26.4268C43.2827 27.7151 44.1372 29.5261 44.1372 31.5318C44.1372 35.4424 40.8888 38.6126 36.8816 38.6126C36.4852 38.6126 36.0961 38.5815 35.7168 38.5219C37.021 39.7455 38.7927 40.4977 40.7447 40.4977C44.7519 40.4977 48.0003 37.3275 48.0003 33.4169C48.0003 29.8931 45.3629 26.9707 41.9095 26.4268V26.4268Z" fill="#78D090"/>
<path d="M44.8619 31.896L43.4908 30.5579C43.3467 30.4172 43.113 30.4172 42.9689 30.5579L40.3164 33.1465C40.1723 33.2872 39.9387 33.2872 39.7946 33.1465L38.5206 31.9033C38.3765 31.7626 38.1429 31.7626 37.9988 31.9033L36.6276 33.2414C36.4835 33.382 36.4835 33.61 36.6276 33.7507L39.7946 36.8414C39.9387 36.982 40.1723 36.982 40.3164 36.8414L44.8619 32.4053C45.006 32.2647 45.006 32.0367 44.8619 31.896V31.896Z" fill="#F6F9F9"/>
<path d="M44.1284 31.1803C44.1342 31.2968 44.1372 31.4141 44.1372 31.5319C44.1372 32.1595 44.0535 32.7681 43.8965 33.3475L44.8618 32.4054C45.0059 32.2648 45.0059 32.0368 44.8618 31.8961L44.1284 31.1803Z" fill="#E7ECF1"/>
</svg>
