<svg width="198" height="43" viewBox="0 0 198 43" fill="none" xmlns="http://www.w3.org/2000/svg">
<path d="M82.16 30.252C80.408 30.252 78.824 29.952 77.408 29.352C76.016 28.752 74.912 27.888 74.096 26.76C73.28 25.632 72.86 24.3 72.836 22.764H78.236C78.308 23.796 78.668 24.612 79.316 25.212C79.988 25.812 80.9 26.112 82.052 26.112C83.228 26.112 84.152 25.836 84.824 25.284C85.496 24.708 85.832 23.964 85.832 23.052C85.832 22.308 85.604 21.696 85.148 21.216C84.692 20.736 84.116 20.364 83.42 20.1C82.748 19.812 81.812 19.5 80.612 19.164C78.98 18.684 77.648 18.216 76.616 17.76C75.608 17.28 74.732 16.572 73.988 15.636C73.268 14.676 72.908 13.404 72.908 11.82C72.908 10.332 73.28 9.036 74.024 7.932C74.768 6.828 75.812 5.988 77.156 5.412C78.5 4.812 80.036 4.512 81.764 4.512C84.356 4.512 86.456 5.148 88.064 6.42C89.696 7.668 90.596 9.42 90.764 11.676H85.22C85.172 10.812 84.8 10.104 84.104 9.552C83.432 8.976 82.532 8.688 81.404 8.688C80.42 8.688 79.628 8.94 79.028 9.444C78.452 9.948 78.164 10.68 78.164 11.64C78.164 12.312 78.38 12.876 78.812 13.332C79.268 13.764 79.82 14.124 80.468 14.412C81.14 14.676 82.076 14.988 83.276 15.348C84.908 15.828 86.24 16.308 87.272 16.788C88.304 17.268 89.192 17.988 89.936 18.948C90.68 19.908 91.052 21.168 91.052 22.728C91.052 24.072 90.704 25.32 90.008 26.472C89.312 27.624 88.292 28.548 86.948 29.244C85.604 29.916 84.008 30.252 82.16 30.252Z" fill="#18063C"/>
<path d="M93.7655 19.956C93.7655 17.94 94.1615 16.152 94.9535 14.592C95.7695 13.032 96.8615 11.832 98.2295 10.992C99.6215 10.152 101.169 9.732 102.873 9.732C104.361 9.732 105.657 10.032 106.761 10.632C107.889 11.232 108.789 11.988 109.461 12.9V10.056H114.537V30H109.461V27.084C108.813 28.02 107.913 28.8 106.761 29.424C105.633 30.024 104.325 30.324 102.837 30.324C101.157 30.324 99.6215 29.892 98.2295 29.028C96.8615 28.164 95.7695 26.952 94.9535 25.392C94.1615 23.808 93.7655 21.996 93.7655 19.956ZM109.461 20.028C109.461 18.804 109.221 17.76 108.741 16.896C108.261 16.008 107.613 15.336 106.797 14.88C105.981 14.4 105.105 14.16 104.169 14.16C103.233 14.16 102.369 14.388 101.577 14.844C100.785 15.3 100.137 15.972 99.6335 16.86C99.1535 17.724 98.9135 18.756 98.9135 19.956C98.9135 21.156 99.1535 22.212 99.6335 23.124C100.137 24.012 100.785 24.696 101.577 25.176C102.393 25.656 103.257 25.896 104.169 25.896C105.105 25.896 105.981 25.668 106.797 25.212C107.613 24.732 108.261 24.06 108.741 23.196C109.221 22.308 109.461 21.252 109.461 20.028Z" fill="#18063C"/>
<path d="M117.804 19.956C117.804 17.94 118.2 16.152 118.992 14.592C119.808 13.032 120.9 11.832 122.268 10.992C123.66 10.152 125.208 9.732 126.912 9.732C128.4 9.732 129.696 10.032 130.8 10.632C131.928 11.232 132.828 11.988 133.5 12.9V10.056H138.576V30H133.5V27.084C132.852 28.02 131.952 28.8 130.8 29.424C129.672 30.024 128.364 30.324 126.876 30.324C125.196 30.324 123.66 29.892 122.268 29.028C120.9 28.164 119.808 26.952 118.992 25.392C118.2 23.808 117.804 21.996 117.804 19.956ZM133.5 20.028C133.5 18.804 133.26 17.76 132.78 16.896C132.3 16.008 131.652 15.336 130.836 14.88C130.02 14.4 129.144 14.16 128.208 14.16C127.272 14.16 126.408 14.388 125.616 14.844C124.824 15.3 124.176 15.972 123.672 16.86C123.192 17.724 122.952 18.756 122.952 19.956C122.952 21.156 123.192 22.212 123.672 23.124C124.176 24.012 124.824 24.696 125.616 25.176C126.432 25.656 127.296 25.896 128.208 25.896C129.144 25.896 130.02 25.668 130.836 25.212C131.652 24.732 132.3 24.06 132.78 23.196C133.26 22.308 133.5 21.252 133.5 20.028Z" fill="#18063C"/>
<path d="M151.814 30.252C150.062 30.252 148.478 29.952 147.062 29.352C145.67 28.752 144.566 27.888 143.75 26.76C142.934 25.632 142.514 24.3 142.49 22.764H147.89C147.962 23.796 148.322 24.612 148.97 25.212C149.642 25.812 150.554 26.112 151.706 26.112C152.882 26.112 153.806 25.836 154.478 25.284C155.15 24.708 155.486 23.964 155.486 23.052C155.486 22.308 155.258 21.696 154.802 21.216C154.346 20.736 153.77 20.364 153.074 20.1C152.402 19.812 151.466 19.5 150.266 19.164C148.634 18.684 147.302 18.216 146.27 17.76C145.262 17.28 144.386 16.572 143.642 15.636C142.922 14.676 142.562 13.404 142.562 11.82C142.562 10.332 142.934 9.036 143.678 7.932C144.422 6.828 145.466 5.988 146.81 5.412C148.154 4.812 149.69 4.512 151.418 4.512C154.01 4.512 156.11 5.148 157.718 6.42C159.35 7.668 160.25 9.42 160.418 11.676H154.874C154.826 10.812 154.454 10.104 153.758 9.552C153.086 8.976 152.186 8.688 151.058 8.688C150.074 8.688 149.282 8.94 148.682 9.444C148.106 9.948 147.818 10.68 147.818 11.64C147.818 12.312 148.034 12.876 148.466 13.332C148.922 13.764 149.474 14.124 150.122 14.412C150.794 14.676 151.73 14.988 152.93 15.348C154.562 15.828 155.894 16.308 156.926 16.788C157.958 17.268 158.846 17.988 159.59 18.948C160.334 19.908 160.706 21.168 160.706 22.728C160.706 24.072 160.358 25.32 159.662 26.472C158.966 27.624 157.946 28.548 156.602 29.244C155.258 29.916 153.662 30.252 151.814 30.252Z" fill="#18063C"/>
<path d="M170.584 14.196V23.844C170.584 24.516 170.74 25.008 171.052 25.32C171.388 25.608 171.94 25.752 172.708 25.752H175.048V30H171.88C167.632 30 165.508 27.936 165.508 23.808V14.196H163.132V10.056H165.508V5.124H170.584V10.056H175.048V14.196H170.584Z" fill="#18063C"/>
<path d="M187.169 30.324C185.249 30.324 183.521 29.904 181.985 29.064C180.449 28.2 179.237 26.988 178.349 25.428C177.485 23.868 177.053 22.068 177.053 20.028C177.053 17.988 177.497 16.188 178.385 14.628C179.297 13.068 180.533 11.868 182.093 11.028C183.653 10.164 185.393 9.732 187.313 9.732C189.233 9.732 190.973 10.164 192.533 11.028C194.093 11.868 195.317 13.068 196.205 14.628C197.117 16.188 197.573 17.988 197.573 20.028C197.573 22.068 197.105 23.868 196.169 25.428C195.257 26.988 194.009 28.2 192.425 29.064C190.865 29.904 189.113 30.324 187.169 30.324ZM187.169 25.932C188.081 25.932 188.933 25.716 189.725 25.284C190.541 24.828 191.189 24.156 191.669 23.268C192.149 22.38 192.389 21.3 192.389 20.028C192.389 18.132 191.885 16.68 190.877 15.672C189.893 14.64 188.681 14.124 187.241 14.124C185.801 14.124 184.589 14.64 183.605 15.672C182.645 16.68 182.165 18.132 182.165 20.028C182.165 21.924 182.633 23.388 183.569 24.42C184.529 25.428 185.729 25.932 187.169 25.932Z" fill="#18063C"/>
<path d="M21.3462 39.6315H10.8178C6.41457 39.6315 2.8429 35.6738 2.8429 30.7866V12.6538C2.8429 7.77022 6.4113 3.8089 10.8178 3.8089H23.6477C22.217 3.96503 20.8322 4.3027 19.5031 4.83282C17.6141 5.58804 16.0787 6.72452 14.8969 8.23861C13.7151 9.7527 13.1225 11.5682 13.1225 13.6886C13.1225 15.9579 13.6234 17.8024 14.6252 19.2112C15.6237 20.6236 16.8317 21.6839 18.2427 22.3883C19.6504 23.0963 21.4706 23.8007 23.7 24.5087C25.5203 25.1151 26.9411 25.6452 27.9657 26.0991C28.9872 26.5529 29.8416 27.1847 30.5258 27.9908C31.2068 28.7968 31.5472 29.8316 31.5472 31.0916C31.5472 32.9578 30.9449 34.4102 29.7401 35.4414C28.5354 36.4762 26.8625 36.9918 24.7247 36.9918C22.3578 36.9918 20.5507 36.5488 19.3001 35.6665C18.0495 34.7842 17.4242 33.586 17.4242 32.0719C17.4242 30.9645 17.6861 30.1039 18.2099 29.4976C18.7337 28.8912 18.9956 28.5644 18.9956 28.5136C18.9956 28.2631 18.7108 27.9072 18.1412 27.4534C17.5716 26.9995 16.9233 26.7708 16.1966 26.7708C14.9231 26.7708 13.8886 27.2246 13.093 28.1324C12.2975 29.0401 11.8981 30.2274 11.8981 31.6907C11.8981 34.265 13.0341 36.2583 15.3094 37.6671C16.9594 38.7019 18.976 39.3482 21.3462 39.6315Z" fill="#FA865F"/>
<path d="M27.4681 0.657269H10.677C4.8366 0.657269 0.0830994 5.92935 0.0830994 12.4069V31.0298C0.0830994 37.511 4.8366 42.7795 10.677 42.7795H27.4681C33.3118 42.7795 38.0653 37.5074 38.0653 31.0298V12.4069C38.0653 5.92935 33.3118 0.657269 27.4681 0.657269ZM37.1585 31.0298C37.1585 36.9627 32.8207 41.7737 27.4714 41.7737H10.677C5.32767 41.7737 0.989932 36.9627 0.989932 31.0298V12.4069C0.989932 6.47399 5.32767 1.66303 10.677 1.66303H27.4681C29.7499 1.66303 31.8451 2.54534 33.5017 4.01586C35.3874 6.03465 36.6314 9.41865 35.2237 12.8063C35.0371 13.3763 34.7588 13.8992 34.3889 14.3712C33.6392 15.3298 32.6472 15.8091 31.4196 15.8091C30.6895 15.8091 30.0446 15.5803 29.4749 15.1264C28.9053 14.6726 28.6205 14.3204 28.6205 14.0662C28.6205 14.0154 28.8038 13.8157 29.1672 13.4599C29.5306 13.1077 29.8612 12.6901 30.1592 12.2108C30.4538 11.7315 30.6044 11.1651 30.6044 10.5079C30.5127 9.14633 29.8973 8.08611 28.7613 7.33088C27.622 6.57565 26.2798 6.19441 24.7345 6.19441C23.006 6.19441 21.4935 6.63738 20.1971 7.51969C18.9007 8.402 18.2525 9.62562 18.2525 11.1905C18.2525 12.603 18.5242 13.7249 19.0709 14.5564C19.6176 15.3879 20.4361 16.0596 21.5262 16.5607C22.6164 17.0653 24.345 17.748 26.7119 18.6049C29.1214 19.4618 31.0103 20.2569 32.3755 20.9904C33.5344 21.6112 34.474 22.4246 35.2237 23.4085C35.2335 23.4231 35.2433 23.434 35.2531 23.4485C36.5234 25.1441 37.1585 27.3118 37.1585 29.5157V31.0298Z" fill="#FA865F"/>
</svg>
