<svg width="134" height="30" viewBox="0 0 134 30" fill="none" xmlns="http://www.w3.org/2000/svg">
<path d="M47.3951 24.2019C46.0804 24.2019 44.8918 23.9767 43.8292 23.5265C42.7847 23.0763 41.9563 22.4279 41.3439 21.5815C40.7316 20.735 40.4164 19.7355 40.3984 18.5829H44.4506C44.5046 19.3573 44.7747 19.9696 45.261 20.4199C45.7653 20.8701 46.4496 21.0952 47.3141 21.0952C48.1965 21.0952 48.8899 20.8881 49.3942 20.4739C49.8984 20.0417 50.1506 19.4834 50.1506 18.799C50.1506 18.2407 49.9795 17.7815 49.6373 17.4213C49.2951 17.0611 48.8629 16.782 48.3406 16.5839C47.8363 16.3677 47.134 16.1336 46.2335 15.8815C45.0089 15.5213 44.0093 15.1701 43.2349 14.8279C42.4785 14.4677 41.8212 13.9365 41.2629 13.2341C40.7226 12.5137 40.4525 11.5592 40.4525 10.3706C40.4525 9.25401 40.7316 8.2815 41.2899 7.45307C41.8482 6.62463 42.6316 5.9943 43.6401 5.56207C44.6487 5.11184 45.8013 4.88672 47.098 4.88672C49.043 4.88672 50.6188 5.36397 51.8254 6.31847C53.0501 7.25496 53.7254 8.56965 53.8515 10.2625H49.6913C49.6553 9.6142 49.3762 9.08292 48.8539 8.6687C48.3496 8.23648 47.6743 8.02036 46.8278 8.02036C46.0894 8.02036 45.4951 8.20946 45.0449 8.58766C44.6127 8.96586 44.3965 9.51515 44.3965 10.2355C44.3965 10.7398 44.5586 11.163 44.8828 11.5052C45.225 11.8294 45.6392 12.0995 46.1254 12.3156C46.6297 12.5137 47.3321 12.7478 48.2326 13.018C49.4572 13.3782 50.4567 13.7384 51.2311 14.0986C52.0055 14.4587 52.6719 14.999 53.2302 15.7194C53.7885 16.4398 54.0676 17.3853 54.0676 18.5559C54.0676 19.5644 53.8065 20.5009 53.2842 21.3654C52.7619 22.2298 51.9965 22.9232 50.988 23.4455C49.9795 23.9497 48.7818 24.2019 47.3951 24.2019Z" fill="#FF553E"/>
<path d="M56.1038 16.4758C56.1038 14.963 56.401 13.6213 56.9953 12.4507C57.6076 11.2801 58.427 10.3796 59.4536 9.74927C60.4981 9.11894 61.6597 8.80378 62.9384 8.80378C64.055 8.80378 65.0275 9.02889 65.8559 9.47913C66.7024 9.92937 67.3777 10.4967 67.882 11.181V9.0469H71.691V24.0128H67.882V21.8246C67.3957 22.527 66.7204 23.1123 65.8559 23.5805C65.0095 24.0308 64.028 24.2559 62.9114 24.2559C61.6507 24.2559 60.4981 23.9317 59.4536 23.2834C58.427 22.635 57.6076 21.7256 56.9953 20.5549C56.401 19.3663 56.1038 18.0066 56.1038 16.4758ZM67.882 16.5298C67.882 15.6114 67.7019 14.8279 67.3417 14.1796C66.9815 13.5132 66.4953 13.009 65.8829 12.6668C65.2706 12.3066 64.6133 12.1265 63.9109 12.1265C63.2085 12.1265 62.5602 12.2976 61.9659 12.6398C61.3716 12.982 60.8853 13.4862 60.5071 14.1526C60.1469 14.8009 59.9668 15.5753 59.9668 16.4758C59.9668 17.3763 60.1469 18.1687 60.5071 18.8531C60.8853 19.5194 61.3716 20.0327 61.9659 20.3929C62.5782 20.7531 63.2265 20.9331 63.9109 20.9331C64.6133 20.9331 65.2706 20.7621 65.8829 20.4199C66.4953 20.0597 66.9815 19.5554 67.3417 18.9071C67.7019 18.2407 67.882 17.4483 67.882 16.5298Z" fill="#FF553E"/>
<path d="M74.1421 16.4758C74.1421 14.963 74.4393 13.6213 75.0336 12.4507C75.6459 11.2801 76.4653 10.3796 77.4919 9.74927C78.5364 9.11894 79.698 8.80378 80.9767 8.80378C82.0933 8.80378 83.0658 9.02889 83.8942 9.47913C84.7407 9.92937 85.416 10.4967 85.9203 11.181V9.0469H89.7293V24.0128H85.9203V21.8246C85.434 22.527 84.7587 23.1123 83.8942 23.5805C83.0478 24.0308 82.0663 24.2559 80.9497 24.2559C79.689 24.2559 78.5364 23.9317 77.4919 23.2834C76.4653 22.635 75.6459 21.7256 75.0336 20.5549C74.4393 19.3663 74.1421 18.0066 74.1421 16.4758ZM85.9203 16.5298C85.9203 15.6114 85.7402 14.8279 85.38 14.1796C85.0198 13.5132 84.5336 13.009 83.9212 12.6668C83.3089 12.3066 82.6516 12.1265 81.9492 12.1265C81.2468 12.1265 80.5985 12.2976 80.0042 12.6398C79.4099 12.982 78.9236 13.4862 78.5454 14.1526C78.1852 14.8009 78.0051 15.5753 78.0051 16.4758C78.0051 17.3763 78.1852 18.1687 78.5454 18.8531C78.9236 19.5194 79.4099 20.0327 80.0042 20.3929C80.6165 20.7531 81.2648 20.9331 81.9492 20.9331C82.6516 20.9331 83.3089 20.7621 83.9212 20.4199C84.5336 20.0597 85.0198 19.5554 85.38 18.9071C85.7402 18.2407 85.9203 17.4483 85.9203 16.5298Z" fill="#FF553E"/>
<path d="M99.6633 24.2019C98.3486 24.2019 97.16 23.9767 96.0975 23.5265C95.0529 23.0763 94.2245 22.4279 93.6122 21.5815C92.9998 20.735 92.6847 19.7355 92.6667 18.5829H96.7188C96.7728 19.3573 97.043 19.9696 97.5292 20.4199C98.0335 20.8701 98.7178 21.0952 99.5823 21.0952C100.465 21.0952 101.158 20.8881 101.662 20.4739C102.167 20.0417 102.419 19.4834 102.419 18.799C102.419 18.2407 102.248 17.7815 101.906 17.4213C101.563 17.0611 101.131 16.782 100.609 16.5839C100.105 16.3677 99.4022 16.1336 98.5017 15.8815C97.2771 15.5213 96.2776 15.1701 95.5032 14.8279C94.7468 14.4677 94.0894 13.9365 93.5311 13.2341C92.9908 12.5137 92.7207 11.5592 92.7207 10.3706C92.7207 9.25401 92.9998 8.2815 93.5581 7.45307C94.1164 6.62463 94.8998 5.9943 95.9084 5.56207C96.9169 5.11184 98.0695 4.88672 99.3662 4.88672C101.311 4.88672 102.887 5.36397 104.094 6.31847C105.318 7.25496 105.994 8.56965 106.12 10.2625H101.96C101.924 9.6142 101.644 9.08292 101.122 8.6687C100.618 8.23648 99.9425 8.02036 99.096 8.02036C98.3577 8.02036 97.7633 8.20946 97.3131 8.58766C96.8809 8.96586 96.6648 9.51515 96.6648 10.2355C96.6648 10.7398 96.8268 11.163 97.151 11.5052C97.4932 11.8294 97.9074 12.0995 98.3937 12.3156C98.8979 12.5137 99.6003 12.7478 100.501 13.018C101.725 13.3782 102.725 13.7384 103.499 14.0986C104.274 14.4587 104.94 14.999 105.498 15.7194C106.057 16.4398 106.336 17.3853 106.336 18.5559C106.336 19.5644 106.075 20.5009 105.552 21.3654C105.03 22.2298 104.265 22.9232 103.256 23.4455C102.248 23.9497 101.05 24.2019 99.6633 24.2019Z" fill="#FF553E"/>
<path d="M113.748 12.1535V19.3933C113.748 19.8976 113.865 20.2668 114.099 20.5009C114.351 20.717 114.765 20.8251 115.342 20.8251H117.098V24.0128H114.72C111.533 24.0128 109.939 22.4639 109.939 19.3663V12.1535H108.156V9.0469H109.939V5.34596H113.748V9.0469H117.098V12.1535H113.748Z" fill="#FF553E"/>
<path d="M126.193 24.2559C124.752 24.2559 123.456 23.9407 122.303 23.3104C121.151 22.6621 120.241 21.7526 119.575 20.582C118.926 19.4113 118.602 18.0606 118.602 16.5298C118.602 14.999 118.935 13.6483 119.602 12.4777C120.286 11.3071 121.214 10.4066 122.384 9.77629C123.555 9.12795 124.86 8.80378 126.301 8.80378C127.742 8.80378 129.048 9.12795 130.218 9.77629C131.389 10.4066 132.307 11.3071 132.974 12.4777C133.658 13.6483 134 14.999 134 16.5298C134 18.0606 133.649 19.4113 132.947 20.582C132.262 21.7526 131.326 22.6621 130.137 23.3104C128.967 23.9407 127.652 24.2559 126.193 24.2559ZM126.193 20.9602C126.878 20.9602 127.517 20.7981 128.111 20.4739C128.723 20.1317 129.21 19.6275 129.57 18.9611C129.93 18.2948 130.11 17.4843 130.11 16.5298C130.11 15.1071 129.732 14.0175 128.976 13.2611C128.237 12.4867 127.328 12.0995 126.247 12.0995C125.167 12.0995 124.257 12.4867 123.519 13.2611C122.798 14.0175 122.438 15.1071 122.438 16.5298C122.438 17.9526 122.789 19.0512 123.492 19.8256C124.212 20.582 125.113 20.9602 126.193 20.9602Z" fill="#FF553E"/>
<path d="M16.804 27.1013H8.48386C5.00419 27.1013 2.18164 24.3492 2.18164 20.9508V8.34187C2.18164 4.94598 5.0016 2.19141 8.48386 2.19141H18.6228C17.4922 2.29997 16.3979 2.53478 15.3475 2.90341C13.8547 3.42857 12.6414 4.21884 11.7074 5.27168C10.7735 6.32453 10.3052 7.58694 10.3052 9.06144C10.3052 10.6395 10.701 11.9221 11.4927 12.9017C12.2818 13.8838 13.2364 14.6211 14.3515 15.1109C15.4639 15.6032 16.9024 16.0931 18.6642 16.5854C20.1026 17.007 21.2254 17.3757 22.0352 17.6913C22.8424 18.0069 23.5176 18.4462 24.0583 19.0067C24.5964 19.5672 24.8655 20.2868 24.8655 21.1629C24.8655 22.4607 24.3895 23.4706 23.4374 24.1876C22.4854 24.9072 21.1633 25.2657 19.4739 25.2657C17.6035 25.2657 16.1754 24.9577 15.1871 24.3442C14.1988 23.7306 13.7047 22.8974 13.7047 21.8446C13.7047 21.0745 13.9116 20.4761 14.3256 20.0545C14.7395 19.6329 14.9465 19.4056 14.9465 19.3703C14.9465 19.1961 14.7214 18.9486 14.2713 18.633C13.8211 18.3174 13.3088 18.1584 12.7345 18.1584C11.7281 18.1584 10.9106 18.474 10.2819 19.1052C9.65324 19.7364 9.33761 20.562 9.33761 21.5795C9.33761 23.3696 10.2353 24.7557 12.0334 25.7353C13.3373 26.4549 14.931 26.9043 16.804 27.1013Z" fill="#FA865F"/>
<path d="M21.6413 0H8.37192C3.7565 0 0 3.66604 0 8.17031V21.1201C0 25.6269 3.7565 29.2904 8.37192 29.2904H21.6413C26.2593 29.2904 30.0158 25.6244 30.0158 21.1201V8.17031C30.0158 3.66604 26.2593 0 21.6413 0ZM29.2991 21.1201C29.2991 25.2457 25.8712 28.591 21.6438 28.591H8.37192C4.14457 28.591 0.716632 25.2457 0.716632 21.1201V8.17031C0.716632 4.04476 4.14457 0.699375 8.37192 0.699375H21.6413C23.4445 0.699375 25.1002 1.31291 26.4093 2.33546C27.8995 3.73926 28.8826 6.09239 27.7701 8.44804C27.6227 8.84444 27.4028 9.20801 27.1104 9.53624C26.518 10.2028 25.7341 10.5361 24.7639 10.5361C24.187 10.5361 23.6773 10.377 23.2272 10.0614C22.777 9.7458 22.5519 9.50089 22.5519 9.32415C22.5519 9.28881 22.6968 9.14994 22.984 8.90251C23.2711 8.6576 23.5324 8.36725 23.7679 8.03397C24.0007 7.7007 24.1197 7.30682 24.1197 6.84983C24.0473 5.90303 23.5609 5.16578 22.6632 4.64062C21.7628 4.11545 20.7021 3.85035 19.481 3.85035C18.115 3.85035 16.9198 4.15838 15.8953 4.77191C14.8708 5.38544 14.3585 6.2363 14.3585 7.3245C14.3585 8.30665 14.5732 9.08682 15.0053 9.665C15.4373 10.2432 16.0841 10.7103 16.9456 11.0587C17.8071 11.4097 19.1731 11.8843 21.0436 12.4802C22.9478 13.076 24.4405 13.629 25.5193 14.139C26.4352 14.5707 27.1777 15.1363 27.7701 15.8205C27.7779 15.8306 27.7857 15.8382 27.7934 15.8483C28.7972 17.0274 29.2991 18.5347 29.2991 20.0673V21.1201Z" fill="#FA865F"/>
</svg>
