<svg width="88" height="88" viewBox="0 0 88 88" fill="none" xmlns="http://www.w3.org/2000/svg">
<rect width="88" height="88" rx="20" fill="#7AD6E1"/>
<g clip-path="url(#clip0_467_4684)">
<path d="M64.0545 28.7796L44.7391 27.5037L20 28.7796V60.1285C20 60.6749 20.5455 61.1179 21.2182 61.1179H62.8356C63.5083 61.1179 64.0545 60.6749 64.0545 60.1285V28.7796Z" fill="#F6F9F9"/>
<path d="M64.0539 28.7798L60.7962 27.1533V51.9496C60.7962 56.1154 57.4152 59.4916 53.2452 59.4916H20.0176V60.1296C20.0176 60.6759 20.4611 61.1189 21.0081 61.1189H63.0634C63.6105 61.1189 64.0539 60.6759 64.0539 60.1296V28.7798Z" fill="#E7ECF1"/>
<path d="M63.064 23H21.0087C20.4617 23 20.0182 23.4429 20.0182 23.9893L20 28.7796H64.0545V23.9893C64.0545 23.4429 63.6111 23 63.064 23Z" fill="#61A2F9"/>
<path d="M63.0641 23H60.7969V28.7796H64.0546V23.9893C64.0546 23.4429 63.6111 23 63.0641 23Z" fill="#5490F9"/>
<path d="M23.5957 49.084V47.6533C23.5957 47.4772 23.8336 47.3335 24.1269 47.3335H54.1759C54.4692 47.3335 54.7072 47.4764 54.7072 47.6533V49.084C54.7072 49.2608 54.4692 49.4037 54.1759 49.4037H24.1269C23.8336 49.4037 23.5957 49.2608 23.5957 49.084Z" fill="#DAE4EA"/>
<path d="M23.5957 53.2236V51.7929C23.5957 51.6161 23.7862 51.4731 24.0218 51.4731H48.1246C48.3601 51.4731 48.5506 51.6161 48.5506 51.7929V53.2236C48.5506 53.3997 48.3601 53.5434 48.1246 53.5434H24.0218C23.787 53.5434 23.5957 53.4005 23.5957 53.2236Z" fill="#DAE4EA"/>
<path d="M23.5957 42.5723V34.705C23.5957 33.7347 24.451 32.9482 25.5072 32.9482H36.1585C37.2139 32.9482 38.07 33.7347 38.07 34.705V42.5723C38.07 43.5426 37.2147 44.3291 36.1585 44.3291H25.5072C24.4518 44.3291 23.5957 43.5426 23.5957 42.5723Z" fill="#DAE4EA"/>
<path d="M40.2344 42.5723V34.705C40.2344 33.7347 41.0897 32.9482 42.1458 32.9482H52.7972C53.8526 32.9482 54.7087 33.7347 54.7087 34.705V42.5723C54.7087 43.5426 53.8533 44.3291 52.7972 44.3291H42.1458C41.0905 44.3291 40.2344 43.5426 40.2344 42.5723Z" fill="#DAE4EA"/>
<path d="M67.5982 55.0866L66.2852 54.8015C66.1713 54.4525 66.0298 54.1114 65.8623 53.7838L66.5895 52.6547C66.7192 52.4526 66.6907 52.1881 66.5208 52.0183L64.4749 49.9749C64.3049 49.8051 64.0401 49.7767 63.8378 49.9062L62.7073 50.6326C62.3785 50.466 62.0378 50.3247 61.6883 50.2102L61.403 48.8987C61.3524 48.6642 61.1445 48.4968 60.9042 48.4968H58.0117C57.7714 48.4968 57.5634 48.6642 57.5129 48.8987L57.2275 50.2102C56.8781 50.3239 56.5366 50.4652 56.2085 50.6326L55.0781 49.9062C54.8757 49.7767 54.6109 49.8051 54.4409 49.9749L52.3951 52.0183C52.2251 52.1881 52.1966 52.4526 52.3263 52.6547L53.0536 53.7838C52.8868 54.1122 52.7453 54.4525 52.6306 54.8015L51.3176 55.0866C51.0828 55.1379 50.916 55.3447 50.916 55.5848V58.4738C50.916 58.7138 51.0836 58.9207 51.3176 58.972L52.6306 59.257C52.7445 59.606 52.886 59.9471 53.0536 60.2748L52.3263 61.4039C52.1966 61.606 52.2251 61.8705 52.3951 62.0403L54.4409 64.0837C54.6109 64.2534 54.8757 64.2819 55.0781 64.1524L56.2085 63.426C56.5374 63.5926 56.8781 63.7339 57.2275 63.8484L57.5129 65.1599C57.5634 65.3944 57.7714 65.5617 58.0117 65.5617H60.9042C61.1445 65.5617 61.3524 65.3944 61.403 65.1599L61.6883 63.8484C62.0378 63.7347 62.3793 63.5934 62.7073 63.426L63.8378 64.1524C64.0401 64.2819 64.3049 64.2534 64.4749 64.0837L66.5208 62.0403C66.6907 61.8705 66.7192 61.606 66.5895 61.4039L65.8623 60.2748C66.0291 59.9463 66.1706 59.606 66.2852 59.257L67.5982 58.972C67.833 58.9207 68.0006 58.7138 68.0006 58.4738V55.5848C68.0006 55.3455 67.833 55.1379 67.5982 55.0866ZM62.5215 57.0297C62.5215 58.7162 61.1476 60.0893 59.4583 60.0893C57.7698 60.0893 56.3951 58.717 56.3951 57.0297C56.3951 55.3424 57.769 53.9701 59.4583 53.9701C61.1468 53.9709 62.5215 55.3432 62.5215 57.0297Z" fill="#C8D2D8"/>
</g>
<defs>
<clipPath id="clip0_467_4684">
<rect width="48" height="42.5616" fill="white" transform="translate(20 23)"/>
</clipPath>
</defs>
</svg>
