<svg width="184" height="43" viewBox="0 0 184 43" fill="none" xmlns="http://www.w3.org/2000/svg">
<g filter="url(#filter0_d_467_3810)">
<path d="M4.72866 19.3056C6.19019 15.4548 11.671 12.4865 14.2287 11.4837C25.921 6.67039 44.7383 4.26347 52.594 5.46693C60.4498 6.67039 51.8633 9.07692 44.3729 11.4836C36.8825 13.8904 42.3633 15.0937 49.1229 13.8904C55.8825 12.687 69.9498 11.4836 82.0075 10.882C94.0652 10.2803 81.8248 9.07692 69.9498 9.07692C58.0748 9.07692 58.2575 6.67029 62.4594 5.46693C66.6614 4.26357 76.1614 -0.549874 87.3056 0.0518062C98.4498 0.653487 124.758 1.85685 136.084 6.06861C147.411 10.2804 170.796 21.7123 176.46 25.3224C182.123 28.9325 181.392 39.161 171.344 33.1442C161.296 27.1274 140.469 16.2972 94.796 14.4921C49.1229 12.6871 14.4113 22.9157 10.7575 27.1274C7.10363 31.3392 4.54594 31.3392 6.00748 27.7291C7.46902 24.119 7.83443 23.5174 6.37289 24.7207C4.91135 25.9241 2.90173 24.119 4.72866 19.3056Z" fill="#FF733B"/>
</g>
<defs>
<filter id="filter0_d_467_3810" x="0" y="0" width="184" height="43" filterUnits="userSpaceOnUse" color-interpolation-filters="sRGB">
<feFlood flood-opacity="0" result="BackgroundImageFix"/>
<feColorMatrix in="SourceAlpha" type="matrix" values="0 0 0 0 0 0 0 0 0 0 0 0 0 0 0 0 0 0 127 0" result="hardAlpha"/>
<feOffset dy="4"/>
<feGaussianBlur stdDeviation="2"/>
<feComposite in2="hardAlpha" operator="out"/>
<feColorMatrix type="matrix" values="0 0 0 0 0 0 0 0 0 0 0 0 0 0 0 0 0 0 0.25 0"/>
<feBlend mode="normal" in2="BackgroundImageFix" result="effect1_dropShadow_467_3810"/>
<feBlend mode="normal" in="SourceGraphic" in2="effect1_dropShadow_467_3810" result="shape"/>
</filter>
</defs>
</svg>
